<?xml version="1.0" encoding="utf-8"?>
<!-- Generator: Adobe Illustrator 23.1.0, SVG Export Plug-In . SVG Version: 6.00 Build 0)  -->
<svg version="1.1" id="Camada_1" xmlns="http://www.w3.org/2000/svg" xmlns:xlink="http://www.w3.org/1999/xlink" x="0px" y="0px"
	 viewBox="0 0 258 145.1" style="enable-background:new 0 0 258 145.1;" xml:space="preserve">
<style type="text/css">
	.st0{fill:#59777D;}
	.st1{display:none;fill-rule:evenodd;clip-rule:evenodd;fill:#A4B98D;}
	.st2{display:none;fill:#FFFFFF;}
	.st3{fill-rule:evenodd;clip-rule:evenodd;fill:#A4B98D;}
</style>
<g>
	<path class="st0" d="M146.5,84.4V68.2c0-3.4-1.5-5.1-4.6-5.1c-0.9,0-1.8,0.3-2.6,0.8c-0.8,0.5-1.4,1.1-1.8,1.8v18.7h-6V67.3
		c0-1.3-0.4-2.3-1.2-3c-0.8-0.7-1.9-1.1-3.3-1.1c-0.8,0-1.6,0.3-2.5,0.8c-0.9,0.6-1.5,1.2-1.9,1.9v18.6h-6V58.6h4.2l1.2,2.3
		c1.7-1.8,3.8-2.8,6.5-2.8c3.4,0,6,0.9,7.7,2.8c0.8-0.9,1.8-1.5,3.2-2c1.4-0.5,2.7-0.8,4.1-0.8c2.9,0,5.1,0.8,6.7,2.5
		c1.6,1.6,2.4,3.9,2.4,6.8v17.1H146.5z"/>
	<path class="st0" d="M160.8,84.4V63.5h-3.3v-4.9h9.4v25.8H160.8z M169.1,48l-5.5,7.1h-4.6l4.1-7.1H169.1z"/>
	<path class="st0" d="M190.4,84.4v-1.6c-0.5,0.5-1.3,1-2.5,1.4c-1.2,0.4-2.4,0.6-3.7,0.6c-3.6,0-6.4-1.1-8.5-3.4
		c-2.1-2.3-3.1-5.5-3.1-9.6c0-4.1,1.2-7.4,3.6-10c2.4-2.6,5.3-3.8,8.9-3.8c2,0,3.7,0.4,5.4,1.2V49l6-1.4v36.9H190.4z M190.4,64.8
		c-1.3-1-2.6-1.5-4-1.5c-2.4,0-4.3,0.7-5.6,2.2c-1.3,1.5-2,3.6-2,6.3c0,5.4,2.6,8.1,7.8,8.1c0.6,0,1.3-0.2,2.1-0.5
		c0.8-0.3,1.4-0.7,1.7-1V64.8z"/>
	<path class="st0" d="M204.1,84.4V63.5h-3.3v-4.9h9.4v25.8H204.1z M207.2,48.6c1,0,1.8,0.3,2.5,1c0.7,0.7,1,1.5,1,2.5
		c0,1-0.3,1.8-1,2.5c-0.7,0.7-1.5,1-2.5,1c-1,0-1.8-0.3-2.5-1c-0.7-0.7-1-1.5-1-2.5c0-1,0.3-1.8,1-2.5
		C205.4,48.9,206.3,48.6,207.2,48.6z"/>
	<path class="st0" d="M231.6,81.8c-0.5,0.9-1.5,1.6-2.9,2.2c-1.4,0.6-2.8,0.9-4.3,0.9c-2.8,0-5-0.7-6.6-2.1
		c-1.6-1.4-2.4-3.4-2.4-5.9c0-3,1.1-5.3,3.4-7c2.2-1.7,5.4-2.5,9.6-2.5c0.7,0,1.5,0.1,2.5,0.4c0-3-1.9-4.6-5.8-4.6
		c-2.3,0-4.2,0.4-5.7,1.1l-1.3-4.7c2.1-1,4.5-1.5,7.4-1.5c3.9,0,6.8,0.9,8.7,2.7c1.8,1.8,2.8,5.2,2.8,10.2v5.5
		c0,3.4,0.7,5.6,2.1,6.5c-0.5,0.9-1.1,1.4-1.7,1.6c-0.6,0.2-1.3,0.3-2.1,0.3c-0.9,0-1.6-0.3-2.3-1C232.3,83.3,231.9,82.6,231.6,81.8
		z M231.1,72.3c-1-0.2-1.8-0.3-2.3-0.3c-4.8,0-7.1,1.6-7.1,4.7c0,2.3,1.3,3.5,4,3.5c3.6,0,5.4-1.8,5.4-5.4V72.3z"/>
</g>
<path class="st1" d="M26.7,49.1c0,11.9,0,23.9,0,35.8c0,6.6,5.3,11.9,11.9,11.9c1.4,0,2.9,0,4.3,0c0.8,4.1,1.6,8.1,2.3,12.2
	c5.1-5.2,7.1-7.4,12-12.2c11.6,0,27.2,0,38.8,0c6.6,0,11.9-5.3,11.9-11.9c0-11.9,0-23.9,0-35.8c0-6.6-5.3-11.9-11.9-11.9
	c-19.2,0-38.3,0-57.5,0C32,37.2,26.7,42.5,26.7,49.1"/>
<path class="st2" d="M51.1,64.4v13.5c1,1,2.4,1.6,4.1,1.6c3.3,0,5.6-0.7,7-2.1c1.4-1.4,2.1-3.6,2.1-6.6c0-5.2-2.8-7.8-8.5-7.8
	C53.7,62.9,52.2,63.4,51.1,64.4"/>
<path class="st3" d="M26.7,49.1c0-6.6,5.3-11.9,11.9-11.9c19.2,0,38.3,0,57.5,0c6.6,0,11.9,5.3,11.9,11.9c0,11.9,0,23.9,0,35.8
	c0,6.6-5.3,11.9-11.9,11.9c-11.6,0-27.2,0-38.8,0c-4.9,4.7-6.9,7-12,12.2c-0.8-4.1-1.6-8.1-2.3-12.2c-1.4,0-2.9,0-4.3,0
	c-6.6,0-11.9-5.3-11.9-11.9C26.7,73,26.7,61,26.7,49.1 M92.5,84.6v-4.2h-9.9l5.4-8.2c2-3,2.9-5.5,2.9-7.5c0-2.2-0.8-3.9-2.3-5.1
	c-1.5-1.2-3.6-1.8-6.3-1.8c-1.6,0-3.1,0.4-4.4,1.3c-1.3,0.8-2.3,1.9-2.9,3.1l3.2,2.5c1.1-1.9,2.6-2.9,4.4-2.9c2.4,0,3.6,1,3.6,3
	c0,1.7-0.8,3.8-2.5,6.2l-8.4,12.3v1.4H92.5z M51.1,64.4v13.5c1,1,2.4,1.6,4.1,1.6c3.3,0,5.6-0.7,7-2.1c1.4-1.4,2.1-3.6,2.1-6.6
	c0-5.2-2.8-7.8-8.5-7.8C53.7,62.9,52.2,63.4,51.1,64.4 M48.1,84.6h-3.8V48.7l6.8-1.4v12c1.8-1,3.8-1.5,5.9-1.5
	c4.3,0,7.7,1.2,10.3,3.6c2.6,2.4,3.9,5.4,3.9,9.2c0,4.3-1.3,7.7-4,10.2c-2.6,2.5-6.2,3.8-10.7,3.8c-2.7,0-5-0.6-7-1.9L48.1,84.6z"/>
<path class="st2" d="M51.1,64.4c1.1-1,2.6-1.5,4.6-1.5c5.7,0,8.5,2.6,8.5,7.8c0,3-0.7,5.2-2.1,6.6c-1.4,1.4-3.7,2.1-7,2.1
	c-1.7,0-3.1-0.5-4.1-1.6V64.4"/>
</svg>
